<svg width="110" height="110" viewBox="0 0 110 110" fill="none" xmlns="http://www.w3.org/2000/svg">
<path d="M72.7604 43.5417H37.2395C37.0876 43.5417 36.9419 43.6021 36.8344 43.7096C36.727 43.817 36.6666 43.9627 36.6666 44.1147C36.6666 44.2666 36.727 44.4123 36.8344 44.5198C36.9419 44.6272 37.0876 44.6876 37.2395 44.6876H72.7604C72.9123 44.6876 73.058 44.6272 73.1655 44.5198C73.2729 44.4123 73.3333 44.2666 73.3333 44.1147C73.3333 43.9627 73.2729 43.817 73.1655 43.7096C73.058 43.6021 72.9123 43.5417 72.7604 43.5417Z" fill="black" fill-opacity="0.7"/>
<path d="M72.7604 56.1458H37.2395C37.0876 56.1458 36.9419 56.2061 36.8344 56.3136C36.727 56.421 36.6666 56.5667 36.6666 56.7187C36.6666 56.8706 36.727 57.0163 36.8344 57.1238C36.9419 57.2312 37.0876 57.2916 37.2395 57.2916H72.7604C72.9123 57.2916 73.058 57.2312 73.1655 57.1238C73.2729 57.0163 73.3333 56.8706 73.3333 56.7187C73.3333 56.5667 73.2729 56.421 73.1655 56.3136C73.058 56.2061 72.9123 56.1458 72.7604 56.1458Z" fill="black" fill-opacity="0.7"/>
<path d="M79.6812 24.0625H30.3187C27.1409 24.0655 24.0942 25.3293 21.8471 27.5763C19.6001 29.8233 18.3363 32.8701 18.3333 36.0479V63.6396C18.3363 66.8174 19.6001 69.8642 21.8471 72.1112C24.0942 74.3582 27.1409 75.622 30.3187 75.625H43.8396L54.5531 89.1573C54.6068 89.2242 54.6748 89.2782 54.7522 89.3153C54.8295 89.3524 54.9142 89.3717 55 89.3717C55.0858 89.3717 55.1705 89.3524 55.2478 89.3153C55.3251 89.2782 55.3932 89.2242 55.4468 89.1573L66.1604 75.625H79.6812C82.859 75.622 85.9058 74.3582 88.1528 72.1112C90.3999 69.8642 91.6636 66.8174 91.6666 63.6396V36.0479C91.6636 32.8701 90.3999 29.8233 88.1528 27.5763C85.9058 25.3293 82.859 24.0655 79.6812 24.0625ZM90.5208 63.6396C90.5148 66.5126 89.3708 69.2661 87.3393 71.2976C85.3078 73.3291 82.5542 74.4731 79.6812 74.4792H65.9312C65.845 74.4787 65.7599 74.4981 65.6824 74.5359C65.6049 74.5736 65.5371 74.6287 65.4844 74.6969L55 87.874L44.5614 74.6969C44.5087 74.6287 44.4409 74.5736 44.3634 74.5359C44.2859 74.4981 44.2008 74.4787 44.1146 74.4792H30.3646C28.9381 74.4822 27.525 74.2042 26.2059 73.6611C24.8869 73.118 23.6877 72.3204 22.6769 71.3138C21.6661 70.3073 20.8634 69.1115 20.3148 67.7947C19.7661 66.478 19.4822 65.0661 19.4791 63.6396V36.0479C19.4852 33.1749 20.6292 30.4214 22.6607 28.3899C24.6922 26.3584 27.4458 25.2144 30.3187 25.2083H79.6812C82.5542 25.2144 85.3078 26.3584 87.3393 28.3899C89.3708 30.4214 90.5148 33.1749 90.5208 36.0479V63.6396Z" fill="black" fill-opacity="0.7"/>
</svg>
