<svg width="110" height="110" viewBox="0 0 110 110" fill="none" xmlns="http://www.w3.org/2000/svg">
<path d="M55 73.3333C56.813 73.3333 58.5853 72.7957 60.0927 71.7885C61.6002 70.7812 62.7751 69.3496 63.4689 67.6746C64.1627 65.9996 64.3442 64.1565 63.9905 62.3783C63.6368 60.6002 62.7638 58.9668 61.4818 57.6849C60.1998 56.4029 58.5665 55.5298 56.7883 55.1761C55.0101 54.8224 53.167 55.004 51.492 55.6978C49.8171 56.3916 48.3854 57.5665 47.3782 59.0739C46.3709 60.5814 45.8333 62.3537 45.8333 64.1667C45.8333 66.5978 46.7991 68.9294 48.5182 70.6485C50.2373 72.3676 52.5688 73.3333 55 73.3333ZM55 56.1458C56.5863 56.1458 58.1371 56.6163 59.4561 57.4976C60.7751 58.3789 61.8032 59.6316 62.4103 61.0972C63.0173 62.5629 63.1762 64.1756 62.8667 65.7315C62.5572 67.2874 61.7933 68.7165 60.6716 69.8383C59.5498 70.96 58.1207 71.7239 56.5648 72.0334C55.0089 72.3429 53.3962 72.184 51.9305 71.577C50.4649 70.9699 49.2122 69.9418 48.3309 68.6228C47.4496 67.3038 46.9791 65.753 46.9791 64.1667C46.9791 62.0394 47.8242 59.9993 49.3284 58.4951C50.8326 56.9909 52.8727 56.1458 55 56.1458Z" fill="black" fill-opacity="0.7"/>
<path d="M22.3438 74.4793C23.4074 74.4793 24.4275 74.9019 25.1796 75.654C25.9317 76.4061 26.3542 77.4261 26.3542 78.4897C26.3542 78.6417 26.4145 78.7874 26.522 78.8949C26.6294 79.0023 26.7751 79.0627 26.9271 79.0627H83.0729C83.2249 79.0627 83.3706 79.0023 83.478 78.8949C83.5855 78.7874 83.6458 78.6417 83.6458 78.4897C83.6458 77.4261 84.0684 76.4061 84.8205 75.654C85.5726 74.9019 86.5926 74.4793 87.6562 74.4793C87.8082 74.4793 87.9539 74.419 88.0614 74.3115C88.1688 74.2041 88.2292 74.0584 88.2292 73.9064V54.4272C88.2292 54.2753 88.1688 54.1296 88.0614 54.0221C87.9539 53.9147 87.8082 53.8543 87.6562 53.8543C86.5926 53.8543 85.5726 53.4318 84.8205 52.6797C84.0684 51.9276 83.6458 50.9075 83.6458 49.8439C83.6458 49.692 83.5855 49.5462 83.478 49.4388C83.3706 49.3314 83.2249 49.271 83.0729 49.271H26.9271C26.7751 49.271 26.6294 49.3314 26.522 49.4388C26.4145 49.5462 26.3542 49.692 26.3542 49.8439C26.3542 50.9075 25.9317 51.9276 25.1796 52.6797C24.4275 53.4318 23.4074 53.8543 22.3438 53.8543C22.1918 53.8543 22.0461 53.9147 21.9386 54.0221C21.8312 54.1296 21.7708 54.2753 21.7708 54.4272V73.9064C21.7708 74.0584 21.8312 74.2041 21.9386 74.3115C22.0461 74.419 22.1918 74.4793 22.3438 74.4793ZM22.9167 55.0002C24.0889 54.8736 25.1826 54.3501 26.0163 53.5164C26.8499 52.6827 27.3735 51.589 27.5 50.4168H82.5C82.6265 51.589 83.1501 52.6827 83.9837 53.5164C84.8174 54.3501 85.9111 54.8736 87.0833 55.0002V73.3335C85.9111 73.46 84.8174 73.9836 83.9837 74.8172C83.1501 75.6509 82.6265 76.7446 82.5 77.9168H27.5C27.3735 76.7446 26.8499 75.6509 26.0163 74.8172C25.1826 73.9836 24.0889 73.46 22.9167 73.3335V55.0002Z" fill="black" fill-opacity="0.7"/>
<path d="M73.3333 67.6042C74.0132 67.6042 74.6778 67.4026 75.2431 67.0249C75.8084 66.6472 76.249 66.1103 76.5092 65.4822C76.7694 64.8541 76.8374 64.1629 76.7048 63.4961C76.5722 62.8293 76.2448 62.2168 75.764 61.7361C75.2833 61.2553 74.6708 60.9279 74.004 60.7953C73.3372 60.6627 72.646 60.7307 72.0179 60.9909C71.3898 61.2511 70.8529 61.6917 70.4752 62.257C70.0975 62.8223 69.8958 63.4869 69.8958 64.1667C69.8958 65.0784 70.258 65.9528 70.9027 66.5974C71.5473 67.2421 72.4217 67.6042 73.3333 67.6042ZM73.3333 61.8751C73.7866 61.8751 74.2297 62.0095 74.6065 62.2613C74.9834 62.5131 75.2771 62.871 75.4506 63.2898C75.624 63.7085 75.6694 64.1693 75.581 64.6138C75.4926 65.0584 75.2743 65.4667 74.9538 65.7872C74.6333 66.1077 74.225 66.326 73.7804 66.4144C73.3359 66.5028 72.8751 66.4574 72.4564 66.284C72.0376 66.1105 71.6797 65.8168 71.4279 65.4399C71.1761 65.0631 71.0417 64.62 71.0417 64.1667C71.0417 63.559 71.2831 62.9761 71.7129 62.5463C72.1427 62.1165 72.7256 61.8751 73.3333 61.8751Z" fill="black" fill-opacity="0.7"/>
<path d="M36.6667 67.6042C37.3465 67.6042 38.0111 67.4026 38.5764 67.0249C39.1417 66.6472 39.5823 66.1103 39.8425 65.4822C40.1027 64.8541 40.1707 64.1629 40.0381 63.4961C39.9055 62.8293 39.5781 62.2168 39.0973 61.7361C38.6166 61.2553 38.0041 60.9279 37.3373 60.7953C36.6705 60.6627 35.9793 60.7307 35.3512 60.9909C34.7231 61.2511 34.1862 61.6917 33.8085 62.257C33.4308 62.8223 33.2292 63.4869 33.2292 64.1667C33.2292 65.0784 33.5913 65.9528 34.236 66.5974C34.8806 67.2421 35.755 67.6042 36.6667 67.6042ZM36.6667 61.8751C37.1199 61.8751 37.563 62.0095 37.9398 62.2613C38.3167 62.5131 38.6104 62.871 38.7839 63.2898C38.9573 63.7085 39.0027 64.1693 38.9143 64.6138C38.8259 65.0584 38.6076 65.4667 38.2871 65.7872C37.9666 66.1077 37.5583 66.326 37.1137 66.4144C36.6692 66.5028 36.2084 66.4574 35.7897 66.284C35.3709 66.1105 35.013 65.8168 34.7612 65.4399C34.5094 65.0631 34.375 64.62 34.375 64.1667C34.375 63.559 34.6164 62.9761 35.0462 62.5463C35.476 62.1165 36.0589 61.8751 36.6667 61.8751Z" fill="black" fill-opacity="0.7"/>
<path d="M95.6771 41.25H14.3229C14.171 41.25 14.0252 41.3104 13.9178 41.4178C13.8104 41.5252 13.75 41.671 13.75 41.8229V86.5104C13.75 86.6624 13.8104 86.8081 13.9178 86.9155C14.0252 87.023 14.171 87.0833 14.3229 87.0833H95.6771C95.829 87.0833 95.9748 87.023 96.0822 86.9155C96.1896 86.8081 96.25 86.6624 96.25 86.5104V41.8229C96.25 41.671 96.1896 41.5252 96.0822 41.4178C95.9748 41.3104 95.829 41.25 95.6771 41.25ZM95.1042 85.9375H14.8958V42.3958H95.1042V85.9375Z" fill="black" fill-opacity="0.7"/>
<path d="M20.0521 38.9585C20.204 38.9585 20.3497 38.8981 20.4572 38.7907C20.5646 38.6832 20.625 38.5375 20.625 38.3856V33.2293H89.375V38.3856C89.375 38.5375 89.4354 38.6832 89.5428 38.7907C89.6503 38.8981 89.796 38.9585 89.9479 38.9585C90.0999 38.9585 90.2456 38.8981 90.353 38.7907C90.4605 38.6832 90.5208 38.5375 90.5208 38.3856V32.6564C90.5208 32.5045 90.4605 32.3587 90.353 32.2513C90.2456 32.1439 90.0999 32.0835 89.9479 32.0835H20.0521C19.9001 32.0835 19.7544 32.1439 19.647 32.2513C19.5395 32.3587 19.4792 32.5045 19.4792 32.6564V38.3856C19.4792 38.5375 19.5395 38.6832 19.647 38.7907C19.7544 38.8981 19.9001 38.9585 20.0521 38.9585Z" fill="black" fill-opacity="0.7"/>
<path d="M25.7813 29.7918C25.9332 29.7918 26.0789 29.7314 26.1864 29.6239C26.2938 29.5165 26.3542 29.3708 26.3542 29.2188V24.0626H83.6458V29.2188C83.6458 29.3708 83.7062 29.5165 83.8136 29.6239C83.9211 29.7314 84.0668 29.7918 84.2188 29.7918C84.3707 29.7918 84.5164 29.7314 84.6239 29.6239C84.7313 29.5165 84.7917 29.3708 84.7917 29.2188V23.4897C84.7917 23.3377 84.7313 23.192 84.6239 23.0846C84.5164 22.9771 84.3707 22.9167 84.2188 22.9167H25.7813C25.6293 22.9167 25.4836 22.9771 25.3761 23.0846C25.2687 23.192 25.2083 23.3377 25.2083 23.4897V29.2188C25.2083 29.3708 25.2687 29.5165 25.3761 29.6239C25.4836 29.7314 25.6293 29.7918 25.7813 29.7918Z" fill="black" fill-opacity="0.7"/>
</svg>
