<svg width="110" height="110" viewBox="0 0 110 110" fill="none" xmlns="http://www.w3.org/2000/svg">
<path d="M44.1146 53.8542C45.0638 53.8542 45.8333 53.0847 45.8333 52.1355C45.8333 51.1863 45.0638 50.4167 44.1146 50.4167C43.1653 50.4167 42.3958 51.1863 42.3958 52.1355C42.3958 53.0847 43.1653 53.8542 44.1146 53.8542Z" fill="black" fill-opacity="0.7"/>
<path d="M44.1146 43.5417C45.0638 43.5417 45.8333 42.7722 45.8333 41.823C45.8333 40.8738 45.0638 40.1042 44.1146 40.1042C43.1653 40.1042 42.3958 40.8738 42.3958 41.823C42.3958 42.7722 43.1653 43.5417 44.1146 43.5417Z" fill="black" fill-opacity="0.7"/>
<path d="M44.1146 33.2292C45.0638 33.2292 45.8333 32.4597 45.8333 31.5105C45.8333 30.5613 45.0638 29.7917 44.1146 29.7917C43.1653 29.7917 42.3958 30.5613 42.3958 31.5105C42.3958 32.4597 43.1653 33.2292 44.1146 33.2292Z" fill="black" fill-opacity="0.7"/>
<path d="M44.1146 64.1667C45.0638 64.1667 45.8333 63.3972 45.8333 62.448C45.8333 61.4988 45.0638 60.7292 44.1146 60.7292C43.1653 60.7292 42.3958 61.4988 42.3958 62.448C42.3958 63.3972 43.1653 64.1667 44.1146 64.1667Z" fill="black" fill-opacity="0.7"/>
<path d="M89.375 36.0938C89.372 31.6883 87.6205 27.4641 84.5053 24.3489C81.3902 21.2337 77.1659 19.4823 72.7604 19.4792H40.6771C38.0949 19.4823 35.6194 20.5094 33.7935 22.3353C31.9676 24.1611 30.9405 26.6367 30.9375 29.2188V72.1876H28.0729C25.4898 72.1876 23.0125 73.2137 21.186 75.0402C19.3595 76.8668 18.3333 79.3441 18.3333 81.9272C18.3333 84.5103 19.3595 86.9876 21.186 88.8141C23.0125 90.6406 25.4898 91.6667 28.0729 91.6667H69.3229C71.9051 91.6637 74.3806 90.6366 76.2065 88.8107C78.0324 86.9849 79.0595 84.5093 79.0625 81.9272V51.4595C82.1096 50.207 84.7163 48.0782 86.5522 45.3427C88.388 42.6072 89.3705 39.3883 89.375 36.0938ZM28.0729 90.5209C25.7937 90.5209 23.6079 89.6155 21.9962 88.0039C20.3846 86.3922 19.4792 84.2064 19.4792 81.9272C19.4792 79.648 20.3846 77.4621 21.9962 75.8505C23.6079 74.2388 25.7937 73.3334 28.0729 73.3334H64.7396C63.1788 74.1614 61.873 75.3988 60.9623 76.9129C60.0516 78.4269 59.5704 80.1603 59.5704 81.9272C59.5704 83.694 60.0516 85.4274 60.9623 86.9415C61.873 88.4555 63.1788 89.6929 64.7396 90.5209H28.0729ZM77.9167 81.9272C77.9167 83.6269 77.4127 85.2884 76.4684 86.7016C75.5241 88.1148 74.1819 89.2163 72.6116 89.8668C71.0413 90.5172 69.3134 90.6874 67.6464 90.3558C65.9793 90.0242 64.4481 89.2057 63.2462 88.0039C62.0444 86.802 61.2259 85.2708 60.8943 83.6037C60.5627 81.9367 60.7329 80.2088 61.3833 78.6385C62.0338 77.0682 63.1352 75.726 64.5485 74.7817C65.9617 73.8374 67.6232 73.3334 69.3229 73.3334H77.9167V81.9272ZM78.1802 50.5657C77.7792 50.7147 77.3781 50.8522 77.0344 50.9667H76.8281C76.45 51.0699 76.0604 51.1615 75.6823 51.2418L75.1552 51.322L74.2844 51.448C73.8031 51.448 73.3104 51.5167 72.8177 51.5167C69.5875 51.517 66.4386 50.5045 63.8138 48.6218C61.189 46.739 59.2206 44.0807 58.1854 41.0209C58.1335 40.8779 58.0278 40.7608 57.8909 40.6944C57.7539 40.6281 57.5965 40.6178 57.4521 40.6657C57.3099 40.7152 57.1929 40.8187 57.1264 40.9538C57.06 41.0889 57.0494 41.2447 57.0969 41.3876C57.8644 43.6817 59.1233 45.7807 60.7856 47.5381C62.448 49.2955 64.4739 50.6689 66.7219 51.5626H49.8438C49.6918 51.5626 49.5461 51.6229 49.4386 51.7304C49.3312 51.8378 49.2708 51.9836 49.2708 52.1355C49.2708 52.2874 49.3312 52.4332 49.4386 52.5406C49.5461 52.6481 49.6918 52.7084 49.8438 52.7084H68.1771C68.3159 52.7066 68.4493 52.6546 68.5525 52.5618C68.6558 52.4691 68.7219 52.342 68.7385 52.2043C70.0528 52.5401 71.404 52.7095 72.7604 52.7084C73.2646 52.7084 73.7573 52.7084 74.2615 52.6282C74.4677 52.6282 74.674 52.6282 74.8802 52.5595L75.6708 52.4334L76.4958 52.273L76.9427 52.1584C77.2635 52.0667 77.5958 51.9865 77.9167 51.8834V72.1876H32.0833V29.2188C32.0833 26.9396 32.9887 24.7538 34.6004 23.1421C36.212 21.5305 38.3979 20.6251 40.6771 20.6251H66.7219H66.6531L66.401 20.7282C66.0573 20.8772 65.7135 21.0261 65.3813 21.198L64.9917 21.4042L64.0979 21.9084L63.7771 22.1147C63.399 22.3667 63.0208 22.6188 62.6312 22.9053L62.4594 23.0428C62.1615 23.2834 61.8635 23.5355 61.5771 23.799L61.2677 24.0855C61.0271 24.3261 60.7865 24.5667 60.5573 24.8188C60.4636 24.9088 60.3756 25.0044 60.2937 25.1053C59.9844 25.449 59.6979 25.8042 59.4229 26.1709L59.3542 26.3542C59.1135 26.6751 58.8844 27.0188 58.6667 27.3626L58.449 27.7292C58.2771 28.0272 58.1167 28.3251 57.9563 28.623C57.7958 28.9209 57.8302 28.8636 57.7729 28.9897C57.5781 29.4022 57.3833 29.8261 57.2229 30.273V30.3647C57.074 30.7772 56.9479 31.1897 56.8219 31.6136L56.7188 32.0261C56.6271 32.3699 56.5583 32.7136 56.4896 33.0574C56.4896 33.0574 56.4896 33.0574 56.4896 33.1261L55 30.1126C54.9669 30.0449 54.9208 29.9843 54.8643 29.9344C54.8078 29.8846 54.742 29.8463 54.6707 29.8218C54.5994 29.7973 54.524 29.7871 54.4488 29.7918C54.3736 29.7965 54.3 29.8159 54.2323 29.849C54.1646 29.8821 54.104 29.9283 54.0542 29.9848C54.0043 30.0413 53.966 30.107 53.9415 30.1783C53.917 30.2496 53.9069 30.325 53.9115 30.4002C53.9162 30.4755 53.9356 30.549 53.9688 30.6167L56.2604 35.2001V35.2574C56.29 35.2974 56.3295 35.329 56.375 35.349L56.4437 35.4063C56.528 35.4538 56.6221 35.4813 56.7188 35.4865C56.8096 35.4883 56.8996 35.4685 56.9813 35.4287C57.063 35.3888 57.134 35.3301 57.1885 35.2574L61.6229 31.9345C61.7445 31.8433 61.8248 31.7076 61.8463 31.5571C61.8678 31.4067 61.8287 31.2539 61.7375 31.1324C61.6445 31.0133 61.5091 30.9349 61.3595 30.9135C61.21 30.8921 61.058 30.9295 60.9354 31.0178L57.4979 33.6074C57.9249 30.9199 59.0538 28.3928 60.7705 26.2815C62.4871 24.1701 64.7307 22.5494 67.2746 21.583C69.8184 20.6167 72.5722 20.339 75.2577 20.778C77.9432 21.2171 80.4652 22.3573 82.5688 24.0834C84.6725 25.8096 86.2831 28.0605 87.238 30.6086C88.1929 33.1567 88.4582 35.9117 88.0071 38.5953C87.556 41.2788 86.4045 43.7957 84.669 45.8915C82.9334 47.9873 80.6753 49.5879 78.1229 50.5313L78.1802 50.5657Z" fill="black" fill-opacity="0.7"/>
<path d="M54.4271 41.25H49.8437C49.6918 41.25 49.5461 41.3104 49.4386 41.4178C49.3312 41.5252 49.2708 41.671 49.2708 41.8229C49.2708 41.9749 49.3312 42.1206 49.4386 42.228C49.5461 42.3355 49.6918 42.3958 49.8437 42.3958H54.4271C54.579 42.3958 54.7248 42.3355 54.8322 42.228C54.9396 42.1206 55 41.9749 55 41.8229C55 41.671 54.9396 41.5252 54.8322 41.4178C54.7248 41.3104 54.579 41.25 54.4271 41.25Z" fill="black" fill-opacity="0.7"/>
<path d="M49.8437 32.0833H52.1354C52.2874 32.0833 52.4331 32.023 52.5405 31.9155C52.648 31.8081 52.7083 31.6624 52.7083 31.5104C52.7083 31.3585 52.648 31.2127 52.5405 31.1053C52.4331 30.9979 52.2874 30.9375 52.1354 30.9375H49.8437C49.6918 30.9375 49.5461 30.9979 49.4386 31.1053C49.3312 31.2127 49.2708 31.3585 49.2708 31.5104C49.2708 31.6624 49.3312 31.8081 49.4386 31.9155C49.5461 32.023 49.6918 32.0833 49.8437 32.0833Z" fill="black" fill-opacity="0.7"/>
<path d="M49.8437 63.0208H68.1771C68.329 63.0208 68.4748 62.9605 68.5822 62.853C68.6896 62.7456 68.75 62.5999 68.75 62.4479C68.75 62.296 68.6896 62.1502 68.5822 62.0428C68.4748 61.9354 68.329 61.875 68.1771 61.875H49.8437C49.6918 61.875 49.5461 61.9354 49.4386 62.0428C49.3312 62.1502 49.2708 62.296 49.2708 62.4479C49.2708 62.5999 49.3312 62.7456 49.4386 62.853C49.5461 62.9605 49.6918 63.0208 49.8437 63.0208Z" fill="black" fill-opacity="0.7"/>
</svg>
