<svg width="20" height="20" viewBox="0 0 20 20" fill="none" xmlns="http://www.w3.org/2000/svg">
<path d="M0.799999 16.5333C0.866666 16.5333 0.933332 16.5333 0.999999 16.4666C1.26667 16.3333 1.33333 16.0666 1.2 15.8C1.06667 15.5333 0.999999 15.2666 0.999999 15V10.3333H7.46667L10.7333 7.06662H1.06667V5.93328C1.06667 4.99995 1.86667 4.19995 2.8 4.19995H13.5333C13.8 4.19995 14 3.99995 14 3.73328C14 3.46662 13.8 3.19995 13.4667 3.19995H2.8C1.33333 3.19995 0.0666656 4.46662 0.0666656 5.93328V15C0.0666656 15.4666 0.199999 15.8666 0.399999 16.2666C0.466666 16.4 0.666666 16.5333 0.799999 16.5333ZM19.4 0.599951C19.2 0.399951 18.8667 0.399951 18.6667 0.599951L0.599999 18.6666C0.399999 18.8666 0.399999 19.2 0.599999 19.4C0.666666 19.4666 0.799999 19.5333 0.933332 19.5333C1.06667 19.5333 1.2 19.4666 1.26667 19.4L19.4 1.33328C19.6 1.13328 19.6 0.799951 19.4 0.599951ZM18.9333 3.99995C18.7333 3.79995 18.4 3.79995 18.2 3.99995C18 4.19995 18 4.53328 18.2 4.73328C18.5333 5.06662 18.7333 5.53328 18.7333 5.99995V7.06662H15.1333L11.8667 10.3333H18.7333V15C18.7333 15.9333 17.9333 16.7333 17 16.7333H5.93333C5.66667 16.7333 5.4 16.9333 5.4 17.2666C5.4 17.6 5.6 17.8 5.93333 17.8H17.0667C18.6 17.8 19.8 16.6 19.8 15.0666V5.93328C19.8 5.19995 19.4667 4.53328 18.9333 3.99995Z" fill="#262324"/>
</svg>
