<svg width="20" height="20" viewBox="0 0 20 20" fill="none" xmlns="http://www.w3.org/2000/svg">
<path d="M18.6397 5.31463C18.0008 5.59862 17.3133 5.79018 16.5918 5.8759C17.3284 5.43493 17.8932 4.73643 18.1596 3.90317C17.4706 4.31204 16.7079 4.60873 15.8954 4.76889C15.2453 4.07603 14.3185 3.64282 13.293 3.64282C11.3242 3.64282 9.72784 5.23914 9.72784 7.20834C9.72784 7.48739 9.75924 7.75938 9.82027 8.02079C6.85694 7.87192 4.22945 6.45269 2.47086 4.29546C2.16394 4.8218 1.98826 5.43422 1.98826 6.08827C1.98826 7.32511 2.61761 8.4166 3.57435 9.05584C2.99015 9.03714 2.44017 8.87663 1.95933 8.60957C1.95898 8.62439 1.95898 8.63956 1.95898 8.65473C1.95898 10.3819 3.18806 11.8227 4.8193 12.1508C4.52014 12.2319 4.20511 12.2756 3.87985 12.2756C3.64984 12.2756 3.42653 12.2534 3.20887 12.2114C3.66289 13.6278 4.97946 14.659 6.53944 14.6876C5.31918 15.644 3.78213 16.214 2.11138 16.214C1.82387 16.214 1.53988 16.1971 1.26083 16.1639C2.83916 17.1761 4.71311 17.7659 6.72641 17.7659C13.2849 17.7659 16.8709 12.3331 16.8709 7.62144C16.8709 7.46693 16.8677 7.31276 16.861 7.15966C17.5574 6.65801 18.162 6.02971 18.6397 5.31463Z" fill="#458BFF" fill-opacity="0.8"/>
</svg>
